# xmcd CD database file
#
# Track frame offsets:
#	151
#	16879
#	35519
#	50375
#	64407
#	87401
#	106978
#	121876
#	140791
#	163907
#	178732
#	196844
#	216126
#	233027
#	249213
#	263918
#	276305
#
# Disc length: 3982 seconds
#
# Revision: 0
# Processed by: cddbd v1.5PL3 Copyright (c) Steve Scherf et al.
# Submitted via: CDex 1.50beta10
#
DISCID=f70f8c11
DTITLE=Faith Hill - Hits of Faith Hill
DYEAR=2001
DGENRE=Country
TTITLE0=There You'll Be
TTITLE1=Breathe
TTITLE2=The Kiss
TTITLE3=The Way You Love Me
TTITLE4=Where Are You Christmas
TTITLE5=Let Me Let Go
TTITLE6=Take Me As I Am
TTITLE7=Let's Make Love
TTITLE8=Love Will Always Win
TTITLE9=It Matters to Me
TTITLE10=Piece Of My Heart
TTITLE11=The Secret Of Life
TTITLE12=It's Your Love
TTITLE13=If My Heart Had Wings
TTITLE14=Somewhere Over The Rainbow
TTITLE15=Wild One
TTITLE16=Just To Hear You Say That You Loved Me
EXTD=YEAR: 2001
EXTT0=
EXTT1=
EXTT2=
EXTT3=
EXTT4=
EXTT5=
EXTT6=
EXTT7=
EXTT8=
EXTT9=
EXTT10=
EXTT11=
EXTT12=
EXTT13=
EXTT14=
EXTT15=
EXTT16=
PLAYORDER=
